# xmcd CD database file
#
# Track frame offsets:
#	150
#	40779
#	96691
#	141684
#	190130
#	223856
#	247653
#
# Disc length: 3720 seconds
#
# Revision: 0
# Processed by: cddbd v1.5.2PL0 Copyright (c) Steve Scherf et al.
# Submitted via: CDex 1.70beta2
#
DISCID=6a0e8607
DTITLE=Mobley, Hank - Peckin' Time - Workout
DYEAR=1961
DGENRE=Jazz
TTITLE0=Stretchin' Out
TTITLE1=Git-Go Blues
TTITLE2=Workout
TTITLE3=Uh Huh
TTITLE4=Smokin'
TTITLE5=The Best Things In Life Are Free
TTITLE6=Greasin' Easy
EXTD=YEAR: 1961
EXTT0=
EXTT1=
EXTT2=
EXTT3=
EXTT4=
EXTT5=
EXTT6=
PLAYORDER=
